<?xml version="1.0" encoding="UTF-8"?><svg id="Layer_1" xmlns="http://www.w3.org/2000/svg" width="277" height="52.51" viewBox="0 0 277 52.51"><path d="m73.24,18.7c-.08.16-.21.33-.37.45-.16.08-.33.12-.49.12-.25,0-.45-.08-.66-.21-.25-.16-.54-.33-.86-.49-.37-.21-.74-.37-1.15-.49-.49-.16-1.03-.25-1.56-.21-.49,0-.95.04-1.4.21-.37.12-.7.29-.99.54-.25.21-.45.49-.62.78-.12.33-.21.7-.21,1.03,0,.45.12.86.41,1.19.29.33.66.62,1.07.82.49.25,1.03.45,1.52.62.58.16,1.15.37,1.77.58s1.19.45,1.77.74c.58.25,1.07.62,1.52,1.03s.82.95,1.07,1.52c.29.7.41,1.44.41,2.18,0,.91-.16,1.77-.49,2.64-.33.78-.78,1.52-1.4,2.14-.66.62-1.4,1.11-2.26,1.44-.99.37-2.02.54-3.05.54-.66,0-1.32-.04-1.94-.21-.62-.12-1.24-.33-1.85-.54-.58-.25-1.11-.54-1.65-.86-.49-.33-.95-.7-1.36-1.11l1.11-1.85c.12-.12.25-.25.37-.33.16-.08.33-.12.49-.12.29,0,.54.12.78.29.29.21.62.41.99.66.41.25.86.49,1.32.66.58.21,1.24.29,1.85.29.91.04,1.81-.25,2.55-.78.62-.58.95-1.4.91-2.22,0-.49-.12-.95-.41-1.32s-.66-.66-1.07-.86c-.49-.25-.99-.45-1.52-.58-.58-.16-1.15-.33-1.73-.54-.58-.21-1.19-.41-1.73-.7-.58-.25-1.07-.62-1.52-1.03-.45-.45-.82-.99-1.07-1.61-.29-.74-.45-1.56-.41-2.39,0-1.56.66-3.05,1.77-4.08.62-.58,1.36-1.03,2.14-1.32.91-.33,1.89-.54,2.88-.49,1.15,0,2.31.16,3.38.58.99.33,1.89.91,2.64,1.61l-.95,1.69Z" style="fill:#fff; stroke-width:0px;"/><path d="m89.04,35.55h-1.61c-.29,0-.54-.04-.78-.16-.21-.12-.37-.37-.41-.62l-.33-1.03c-.33.33-.7.62-1.11.86-.33.25-.74.45-1.11.62-.41.16-.78.29-1.24.37-.49.08-.99.12-1.48.12-.58,0-1.15-.08-1.73-.25-.49-.16-.95-.41-1.36-.74-.37-.33-.7-.78-.91-1.24-.21-.54-.33-1.15-.33-1.73s.16-1.15.45-1.65c.37-.62.86-1.11,1.48-1.44.82-.49,1.77-.86,2.72-1.07,1.4-.33,2.8-.45,4.2-.41v-.91c.04-.78-.16-1.56-.62-2.18-.45-.49-1.11-.78-1.81-.74-.49,0-.99.04-1.48.21-.33.12-.7.29-.99.45l-.78.45c-.25.12-.49.21-.78.21-.21,0-.45-.04-.62-.16-.16-.12-.33-.29-.41-.45l-.62-1.11c1.69-1.52,3.87-2.35,6.14-2.31.78,0,1.56.12,2.31.41.66.25,1.24.66,1.73,1.15s.82,1.11,1.07,1.77c.25.74.37,1.52.37,2.26l.04,9.31Zm-6.88-2.18c.33,0,.66-.04.99-.08.29-.08.58-.16.86-.29s.54-.29.78-.49.49-.45.74-.7v-2.47c-.86,0-1.73.04-2.59.21-.58.08-1.15.25-1.69.49-.37.16-.66.41-.91.74-.16.25-.25.58-.25.86-.04.49.16,1.03.58,1.36.41.25.91.41,1.48.37h0Z" style="fill:#fff; stroke-width:0px;"/><path d="m97.73,20.68c.62,0,1.19.04,1.77.21.54.12,1.03.29,1.52.58h4.24v1.32c0,.21-.04.37-.16.54-.16.16-.37.25-.58.25l-1.32.25c.08.25.16.54.21.78.04.29.08.58.08.86,0,.7-.12,1.36-.45,1.98-.29.58-.7,1.07-1.19,1.44-.54.41-1.15.74-1.81.95-.74.25-1.52.33-2.31.33-.54,0-1.07-.04-1.61-.16-.45.29-.7.58-.7.95,0,.29.16.54.41.66.33.16.7.25,1.07.29.49.04,1.03.08,1.52.08.58,0,1.15.04,1.73.08.58.04,1.15.12,1.73.25.54.12,1.03.29,1.52.58.45.29.82.66,1.07,1.11.29.54.45,1.11.41,1.73,0,.66-.16,1.32-.49,1.89-.33.62-.82,1.19-1.4,1.65-.66.49-1.44.91-2.22,1.15-.99.29-1.98.45-3.01.45s-1.98-.08-2.92-.33c-.74-.16-1.4-.45-2.06-.86-.49-.33-.91-.74-1.19-1.28-.25-.45-.41-.95-.41-1.44,0-.62.21-1.24.62-1.73.49-.49,1.07-.91,1.73-1.11-.37-.21-.66-.45-.86-.78-.25-.37-.33-.82-.33-1.28,0-.25.04-.45.12-.66.08-.25.21-.49.37-.74s.37-.45.58-.66c.25-.21.54-.41.86-.54-.7-.37-1.32-.91-1.77-1.61-.45-.7-.66-1.52-.62-2.35-.04-1.36.58-2.64,1.65-3.46.54-.41,1.19-.74,1.85-.95.74-.37,1.56-.45,2.35-.41Zm3.87,15.48c0-.25-.08-.54-.25-.74-.21-.21-.45-.37-.74-.41-.33-.12-.7-.21-1.03-.21-.41-.04-.82-.08-1.28-.08h-1.36c-.45,0-.91-.04-1.36-.16-.37.21-.7.45-.95.78-.25.29-.37.66-.37,1.03,0,.25.08.49.21.74.16.25.37.45.62.58.33.16.7.33,1.11.37.54.08,1.11.16,1.65.12.58,0,1.15-.04,1.69-.16.41-.08.82-.21,1.19-.41.29-.16.49-.37.7-.66.08-.21.16-.49.16-.78Zm-3.87-8.28c.37,0,.78-.04,1.15-.16.29-.12.58-.29.82-.49.21-.21.37-.45.49-.74.12-.33.16-.62.16-.99.04-.62-.21-1.28-.66-1.73-1.15-.86-2.76-.86-3.91,0-.45.45-.7,1.07-.66,1.73,0,.33.04.66.16.95s.29.54.49.74c.25.21.49.41.82.49.33.16.74.21,1.11.21Z" style="fill:#fff; stroke-width:0px;"/><path d="m113.73,20.71c.86,0,1.73.12,2.55.45.74.29,1.44.7,2.02,1.28.58.58,1.03,1.32,1.32,2.1.33.91.49,1.85.49,2.8v.66c0,.16-.04.29-.12.41-.04.08-.16.16-.25.21-.12.04-.25.08-.41.08h-9.14c0,1.24.41,2.39,1.24,3.29.74.74,1.77,1.11,2.8,1.07.49,0,.99-.04,1.48-.21.37-.12.74-.25,1.07-.45l.82-.45c.21-.12.45-.21.7-.21.12,0,.25.04.37.08.12.04.21.12.29.25l1.03,1.28c-.37.45-.82.82-1.32,1.15-.49.29-.99.54-1.52.74-.54.16-1.07.33-1.61.41s-1.07.12-1.61.12c-.99,0-1.94-.16-2.84-.49-.86-.33-1.65-.82-2.31-1.48-.66-.7-1.19-1.52-1.52-2.47-.41-1.07-.58-2.22-.58-3.38,0-.95.16-1.89.49-2.8.29-.86.78-1.65,1.4-2.31s1.36-1.19,2.18-1.56c.91-.45,1.94-.62,2.96-.58Zm.08,2.51c-.91-.04-1.77.25-2.43.86-.62.7-1.03,1.56-1.11,2.47h6.67c0-.45-.08-.86-.21-1.28-.12-.37-.33-.74-.58-1.07s-.62-.58-.99-.74c-.41-.16-.91-.25-1.36-.25h0Z" style="fill:#fff; stroke-width:0px;"/><path d="m124.24,35.56V15.38h5.85c1.03,0,2.02.08,3.01.33.74.21,1.48.54,2.1.99.54.41.99.99,1.24,1.61.29.7.41,1.44.41,2.18,0,.54-.08,1.03-.29,1.52s-.45.95-.82,1.36c-.37.45-.82.78-1.32,1.11-.54.33-1.15.58-1.77.74,1.36.12,2.64.7,3.66,1.61.86.86,1.36,2.02,1.28,3.25,0,.78-.16,1.56-.45,2.31-.29.66-.74,1.24-1.32,1.69-.62.49-1.36.86-2.14,1.11-.95.25-1.94.41-2.92.37h-6.51Zm1.48-10.75h4.41c.82,0,1.65-.08,2.43-.37.62-.21,1.15-.54,1.65-.95.41-.37.74-.82.95-1.32s.29-.99.29-1.52c.08-1.19-.41-2.31-1.32-3.09-.86-.7-2.18-1.03-3.99-1.03h-4.41v8.28Zm0,1.07v8.48h5.11c1.44.12,2.88-.29,4.04-1.15.95-.82,1.44-2.02,1.36-3.21,0-.58-.12-1.19-.37-1.73-.25-.49-.62-.95-1.07-1.32-.49-.37-1.07-.66-1.69-.82-.74-.21-1.52-.29-2.26-.29l-5.11.04Z" style="fill:#fff; stroke-width:0px;"/><path d="m144.5,16.47c0,.16-.04.33-.12.49-.08.16-.16.29-.29.41-.12.12-.25.21-.41.29-.33.12-.66.12-.99,0-.16-.08-.29-.16-.41-.29s-.21-.25-.29-.41-.08-.33-.08-.49.04-.33.08-.49c.12-.29.37-.54.66-.66.33-.12.66-.12.99,0,.16.08.29.16.41.29s.21.25.29.41c.12.08.16.25.16.45Zm-.62,4.86v14.21h-1.36v-14.21h1.36Z" style="fill:#fff; stroke-width:0px;"/><path d="m154.5,21.15c.95,0,1.89.16,2.76.54.78.33,1.48.82,2.06,1.44.58.66,1.03,1.44,1.28,2.31.58,1.98.58,4.08,0,6.01-.25.86-.7,1.65-1.28,2.31-.58.62-1.28,1.15-2.06,1.44-1.77.7-3.75.7-5.52,0-.78-.33-1.48-.82-2.06-1.44-.58-.66-1.03-1.44-1.28-2.31-.58-1.98-.58-4.08,0-6.01.25-.86.7-1.65,1.28-2.31.58-.62,1.28-1.11,2.06-1.44.91-.37,1.81-.58,2.76-.54Zm0,13.51c.74,0,1.52-.12,2.18-.45.62-.29,1.19-.7,1.61-1.24.45-.58.78-1.24.95-1.98.45-1.69.45-3.42.04-5.11-.16-.7-.49-1.4-.95-1.98-.41-.54-.99-.99-1.61-1.28-1.44-.58-3.05-.58-4.45,0-.62.29-1.19.74-1.61,1.28-.45.58-.78,1.28-.99,1.98-.41,1.69-.41,3.46,0,5.15.21.7.49,1.36.95,1.98.41.54.99.99,1.61,1.24.74.33,1.52.45,2.26.41h0Z" style="fill:#fff; stroke-width:0px;"/><path d="m164.75,35.59v-14.21h.74c.12,0,.21,0,.29.08s.12.16.12.29l.12,2.14c.62-.78,1.4-1.48,2.26-1.98.91-.49,1.89-.74,2.92-.74.7,0,1.4.12,2.06.37.58.25,1.07.62,1.48,1.07.41.49.7,1.07.91,1.69.21.74.33,1.48.29,2.22v9.06h-1.36v-9.06c.08-1.11-.25-2.22-.91-3.13-.7-.78-1.73-1.24-2.8-1.15-.91,0-1.81.25-2.59.74-.82.49-1.56,1.19-2.14,1.98v10.62h-1.4Z" style="fill:#fff; stroke-width:0px;"/><path d="m185.81,21.15c.78,0,1.52.12,2.22.41.66.29,1.28.7,1.77,1.19.54.58.91,1.24,1.19,1.94.29.86.45,1.77.41,2.64,0,.16,0,.29-.08.41-.08.08-.16.12-.29.12h-10.29v.29c0,.95.12,1.89.37,2.8.21.74.58,1.44,1.07,2.02.45.54,1.03.95,1.69,1.24.7.29,1.44.41,2.18.41.62,0,1.28-.08,1.85-.25.45-.12.91-.33,1.32-.54.29-.16.58-.33.86-.54.12-.12.29-.21.45-.25.12,0,.21.04.29.16l.37.45c-.25.33-.58.58-.91.78-.41.25-.82.45-1.28.62-.49.16-.95.33-1.48.41-.54.12-1.07.16-1.61.16-.91,0-1.81-.16-2.68-.49-.78-.33-1.48-.82-2.06-1.44-.62-.7-1.11-1.52-1.4-2.43-.33-1.03-.49-2.14-.45-3.21,0-.95.12-1.89.45-2.8.25-.82.7-1.56,1.28-2.22.58-.62,1.24-1.11,2.02-1.44.86-.29,1.77-.49,2.72-.45Zm0,.99c-.66,0-1.36.12-1.98.33-.58.21-1.07.54-1.52.99-.45.45-.78.99-1.03,1.52-.29.66-.45,1.32-.54,2.02h9.39c0-.7-.08-1.4-.33-2.06-.21-.58-.49-1.07-.91-1.52-.37-.41-.86-.74-1.36-.95-.49-.21-1.11-.33-1.73-.33h0Z" style="fill:#fff; stroke-width:0px;"/><path d="m199.15,35.78c-.82.04-1.65-.25-2.26-.78-.58-.7-.86-1.56-.82-2.47v-9.72h-2.06c-.08,0-.16-.04-.25-.08-.08-.04-.12-.16-.08-.25v-.54l2.43-.16.33-5.11c0-.08.04-.16.12-.25.08-.08.16-.12.25-.08h.62v5.44h4.49v1.03h-4.49v9.64c0,.33.04.7.16.99.08.29.21.54.41.74.16.16.37.33.62.41s.49.12.78.12.62-.04.91-.16c.21-.08.45-.21.66-.33.16-.08.29-.21.45-.33.08-.08.16-.12.29-.16.08,0,.16.08.25.16l.37.58c-.37.41-.86.74-1.4.95-.58.29-1.19.41-1.77.37Z" style="fill:#fff; stroke-width:0px;"/><path d="m203.62,21.36h1.07c.12,0,.25.04.33.12.08.04.12.12.16.25l3.58,11.2c.08.21.12.41.16.62l.12.58c.04-.21.08-.41.16-.58s.12-.41.21-.62l3.83-11.28c0-.08.08-.16.12-.25.08-.04.16-.08.25-.08h.54c.08,0,.21.04.25.08.08.04.12.12.16.25l3.79,11.28c.12.41.25.82.33,1.24.04-.21.08-.41.12-.62s.12-.41.16-.62l3.62-11.2c.04-.12.08-.21.16-.25.08-.08.21-.08.29-.08h.99l-4.82,14.16h-.99c-.16,0-.25-.08-.33-.29l-3.91-11.53c-.04-.12-.08-.29-.12-.41s-.08-.29-.08-.41c-.04.12-.04.29-.08.41-.04.16-.08.29-.12.41l-3.95,11.53c0,.08-.04.16-.12.21-.08.04-.12.08-.25.08h-.95l-4.69-14.21Z" style="fill:#fff; stroke-width:0px;"/><path d="m232.38,21.15c.95,0,1.89.16,2.76.54.78.33,1.48.82,2.06,1.44.58.66,1.03,1.44,1.28,2.31.58,1.98.58,4.08,0,6.01-.25.86-.7,1.65-1.28,2.31-.58.62-1.28,1.15-2.06,1.44-1.77.7-3.75.7-5.52,0-.78-.33-1.48-.82-2.06-1.44-.58-.66-1.03-1.44-1.28-2.31-.58-1.98-.58-4.08,0-6.01.25-.86.7-1.65,1.28-2.31.58-.62,1.28-1.11,2.06-1.44.91-.37,1.81-.58,2.76-.54Zm0,13.51c.74,0,1.52-.12,2.18-.45.62-.29,1.19-.7,1.61-1.24.45-.58.78-1.24.95-1.98.41-1.69.41-3.46,0-5.15-.16-.7-.49-1.4-.95-1.98-.41-.54-.99-.99-1.61-1.28-1.44-.58-3.05-.58-4.45,0-.62.29-1.19.7-1.61,1.28-.45.62-.74,1.28-.95,1.98-.41,1.69-.41,3.46,0,5.15.21.7.49,1.36.95,1.98.41.54.99.99,1.61,1.24.74.37,1.52.49,2.26.45h0Z" style="fill:#fff; stroke-width:0px;"/><path d="m242.63,35.55v-14.21h.74c.12,0,.25.04.37.08.08.08.12.21.12.33l.12,3.01c.37-1.03,1.03-1.98,1.85-2.72.78-.66,1.81-1.03,2.84-.99.41,0,.82.04,1.19.12s.7.21,1.03.41l-.21.95c0,.08-.04.12-.08.16-.04.04-.12.04-.21.04s-.16-.04-.25-.04l-.41-.12c-.21-.04-.37-.08-.58-.12-.25-.04-.54-.04-.78-.04-.99-.04-1.94.33-2.68,1.03-.78.82-1.36,1.81-1.69,2.92v9.18h-1.4Z" style="fill:#fff; stroke-width:0px;"/><path d="m255.7,14.81v12.64h.66c.12,0,.25,0,.37-.04.16-.04.29-.16.41-.29l5.72-5.39c.08-.08.21-.16.33-.25.12-.08.29-.12.41-.08h1.19l-6.3,5.93-.29.25c-.08.08-.16.16-.29.21.12.08.29.16.37.29l.33.33,6.59,7.16h-1.19c-.12,0-.25-.04-.37-.08-.12-.08-.21-.16-.33-.25l-5.97-6.42c-.12-.12-.29-.25-.45-.33-.21-.08-.41-.12-.62-.08h-.66v7.16h-1.36V14.85h1.44v-.04Z" style="fill:#fff; stroke-width:0px;"/><path d="m276.33,23.14c-.04.12-.16.21-.33.21s-.29-.08-.41-.16c-.21-.16-.41-.29-.66-.41-.33-.16-.66-.29-.99-.41-.49-.12-.99-.21-1.48-.16-.49,0-.95.08-1.4.21-.41.12-.78.33-1.07.58-.29.25-.54.54-.74.86-.16.33-.25.66-.25,1.03,0,.41.12.78.33,1.11.25.29.58.54.91.74.41.21.82.41,1.28.54l1.48.45c.49.16.99.33,1.48.49.45.16.86.41,1.28.74.37.29.66.62.91,1.03.25.45.37.95.33,1.44,0,.58-.12,1.19-.33,1.73s-.54.99-.99,1.4-.99.74-1.56.91c-.7.25-1.4.37-2.14.33-.91.04-1.77-.12-2.59-.49-.7-.33-1.36-.74-1.94-1.24l.33-.49c.04-.08.08-.12.16-.16s.16-.08.25-.04c.16.04.33.08.45.21.25.16.49.33.74.49.33.21.7.37,1.07.49.54.16,1.07.25,1.61.21.54,0,1.07-.08,1.61-.25.41-.16.82-.37,1.15-.66.33-.29.58-.62.74-.99s.25-.82.25-1.24-.12-.82-.33-1.19c-.25-.33-.54-.62-.91-.78-.41-.25-.82-.41-1.28-.58l-1.48-.45c-.49-.16-.99-.33-1.48-.49-.45-.16-.86-.41-1.28-.7-.37-.29-.66-.62-.91-.99-.25-.45-.37-.95-.33-1.44,0-.49.12-.99.33-1.44.21-.49.49-.91.91-1.24.45-.37.95-.66,1.48-.82.62-.21,1.32-.33,1.98-.33.78,0,1.56.12,2.31.37.7.25,1.32.66,1.85,1.15l-.33.45Z" style="fill:#fff; stroke-width:0px;"/><path d="m12.89,30.32l-.41.7c.37.25.86.12,1.11-.29.08-.12.12-.25.12-.41h-.82Zm.08-13.84h.82c0-.29-.16-.58-.41-.7l-.41.7ZM.82,9.49l.41-.7c-.37-.21-.86-.08-1.11.29-.08.12-.12.25-.12.41h.82Zm0,13.55h-.82c0,.29.16.54.37.7l.45-.7Zm12.89,7.33l.08-13.88h-1.61l-.08,13.88h1.61Zm-.33-14.58L1.24,8.83l-.82,1.4,12.15,6.96.82-1.4ZM0,9.49l.04,13.55h1.61l-.04-13.55H0Zm.41,14.25l12.06,7.29.82-1.4L1.24,22.34l-.82,1.4Z" style="fill:#b3b6b7; stroke-width:0px;"/><path d="m12.57,29.64c-.37.21-.54.7-.29,1.11.21.37.7.54,1.11.29h0l-.82-1.4Zm10.99-5.27l.41.7c.37-.21.49-.7.29-1.11-.21-.37-.7-.49-1.07-.29l.37.7Zm-3.99,1.32c-.37.21-.54.7-.29,1.11.21.37.7.54,1.11.29l-.82-1.4Zm-6.22,5.35l10.62-5.97-.78-1.4-10.62,5.97.78,1.4Zm9.84-7.37l-3.58,2.02.78,1.4,3.58-2.02-.78-1.4Z" style="fill:#b3b6b7; stroke-width:0px;"/><path d="m25.03,51.52l-.41.7c.37.25.86.12,1.11-.29.08-.12.12-.25.12-.41h-.82Zm.08-13.84h.82c0-.29-.16-.58-.41-.7l-.41.7Zm-12.15-7l.41-.7c-.37-.21-.86-.08-1.11.29-.08.12-.12.25-.12.41h.82Zm0,13.55h-.82c0,.29.16.54.37.7l.45-.7Zm12.89,7.33l.08-13.88h-1.61l-.08,13.88h1.61Zm-.33-14.58l-12.19-6.96-.78,1.4,12.19,6.96.78-1.4Zm-13.38-6.3l.04,13.55h1.61l-.04-13.55h-1.61Zm.41,14.25l12.06,7.29.82-1.4-12.06-7.29-.82,1.4Z" style="fill:#b3b6b7; stroke-width:0px;"/><path d="m39.72,30.85h.82c0-.45-.33-.82-.78-.82-.16,0-.29.04-.41.12l.37.7Zm-12.11,6.88l-.41-.7c-.25.12-.41.41-.41.7h.82Zm0,13.96h-.82c0,.45.37.82.82.82.12,0,.29-.04.41-.12l-.41-.7Zm11.78-6.79l.41.7c.25-.12.41-.41.41-.7h-.82Zm-.04-14.74l-12.15,6.88.78,1.4,12.15-6.88-.78-1.4Zm-12.56,7.58v13.96h1.61v-13.96h-1.61Zm1.24,14.66l11.78-6.79-.82-1.4-11.78,6.79.82,1.4Zm12.19-7.49l.33-14.04-1.61-.04-.33,14.04,1.61.04Z" style="fill:#cdccca; stroke-width:0px;"/><path d="m39.33,31.25c.37.21.86.08,1.11-.29.21-.37.08-.86-.29-1.11h0l-.82,1.4Zm-10.09-6.88l.41-.7c-.37-.21-.86-.08-1.11.29-.21.37-.08.86.29,1.11l.41-.7Zm3.13,2.8c.37.21.86.08,1.11-.29.21-.37.08-.86-.29-1.11l-.82,1.4Zm7.78,2.68l-10.5-6.14-.82,1.4,10.5,6.14.82-1.4Zm-11.32-4.78l3.58,2.1.82-1.4-3.58-2.1-.82,1.4Z" style="fill:#cdccca; stroke-width:0px;"/><path d="m52.12,9.8h.82c0-.45-.33-.82-.78-.82-.16,0-.29.04-.41.12l.37.7Zm-12.11,6.88l-.41-.7c-.25.12-.41.41-.41.7h.82Zm0,13.96h-.82c0,.45.37.82.82.82.12,0,.29-.04.41-.12l-.41-.7Zm11.78-6.79l.41.7c.25-.12.41-.41.41-.7h-.82Zm-.04-14.74l-12.15,6.88.78,1.4,12.15-6.88-.78-1.4Zm-12.56,7.58v13.96h1.61v-13.96h-1.61Zm1.24,14.66l11.78-6.79-.82-1.4-11.78,6.79.82,1.4Zm12.19-7.49l.33-14-1.61-.04-.33,14,1.61.04Z" style="fill:#cdccca; stroke-width:0px;"/><path d="m26.84,7.68l-.37-.7c-.41.21-.54.7-.33,1.11.08.12.16.25.29.33l.41-.74Zm12.02,7l-.41.7c.25.16.58.16.82,0l-.41-.7Zm12.15-7l.41.7c.37-.21.54-.7.29-1.11-.08-.12-.16-.21-.29-.29l-.41.7ZM39.19.93l.41-.7c-.25-.12-.54-.12-.78,0l.37.7Zm-12.76,7.41l12.02,7,.82-1.4-12.06-7-.78,1.4Zm12.85,7.04l12.15-7-.82-1.4-12.15,7,.82,1.4Zm12.15-8.4L39.6.23l-.78,1.4,11.82,6.75.78-1.4ZM38.82.23l-12.39,6.71.78,1.4,12.39-6.71-.78-1.4Z" style="fill:#fff; stroke-width:0px;"/><path d="m27.34,7.8c0-.45-.37-.82-.78-.82-.45,0-.82.37-.82.78l1.61.04Zm-.91,12.11h-.82c0,.45.37.82.78.82.45,0,.82-.37.82-.78h0l-.78-.04Zm.82-4.08c0-.45-.37-.82-.78-.82s-.82.37-.82.78l1.61.04Zm-1.52-8.03l-.12,12.11h1.61l.12-12.11h-1.61Zm1.48,12.15l.04-4.12h-1.61l-.04,4.12h1.61Z" style="fill:#fff; stroke-width:0px;"/><path d="m2.28,7.55l-.37-.7c-.41.21-.54.7-.33,1.11.08.12.16.25.29.33l.41-.74Zm12.02,7l-.41.7c.25.16.58.16.82,0l-.41-.7Zm12.15-7l.41.7c.37-.21.54-.7.29-1.11-.08-.12-.16-.21-.29-.29l-.41.7ZM14.64.79l.41-.7c-.25-.12-.54-.12-.78,0l.37.7ZM1.87,8.2l12.06,7,.82-1.4L2.7,6.8l-.82,1.4Zm12.85,7.04l12.15-7-.82-1.4-12.15,7,.82,1.4Zm12.15-8.4L15.05.09l-.78,1.4,11.82,6.75.78-1.4ZM14.27.09L1.87,6.8l.78,1.4L15.05,1.49l-.78-1.4Z" style="fill:#fff; stroke-width:0px;"/></svg>