<svg width="658" height="184" viewBox="0 0 658 184" fill="none" xmlns="http://www.w3.org/2000/svg">
<path fill-rule="evenodd" clip-rule="evenodd" d="M87.7651 46.2549L121.894 66.1118L119.6 70.065L113.837 66.7211L90.0483 52.8726V88.2096H85.4779V52.8657L61.5602 66.7415L61.5551 66.7445L55.844 70.0775L53.5403 66.1301L59.2616 62.7912L87.7651 46.2549Z" fill="white"/>
<path fill-rule="evenodd" clip-rule="evenodd" d="M46.7969 84.7029L46.6636 78.0878L51.2331 77.9958L51.3675 84.6651L51.2683 112.216L81.8698 94.548L84.155 98.5061L53.5458 116.178L77.5233 129.955L77.5284 129.958L83.2703 133.237L81.0036 137.206L75.2566 133.924L75.2515 133.921L46.6788 117.504L46.7969 84.7029Z" fill="white"/>
<path fill-rule="evenodd" clip-rule="evenodd" d="M128.689 77.937L128.72 84.561L128.789 117.514L100.324 133.812L94.6616 137.235L92.2971 133.324L98.0058 129.873L121.916 116.183L91.3152 98.5151L93.6004 94.557L124.208 112.228L124.15 84.5764L124.15 84.5706L124.119 77.9583L128.689 77.937Z" fill="white"/>
<path d="M179.255 112.358C176.418 112.358 173.879 111.873 171.639 110.902C169.437 109.932 167.682 108.513 166.375 106.646C165.106 104.78 164.453 102.521 164.415 99.8702H172.423C172.461 101.028 172.759 102.073 173.319 103.006C173.879 103.94 174.645 104.686 175.615 105.246C176.623 105.769 177.818 106.03 179.199 106.03C180.394 106.03 181.421 105.844 182.279 105.47C183.175 105.06 183.866 104.5 184.351 103.79C184.837 103.081 185.079 102.241 185.079 101.27C185.079 100.15 184.799 99.2168 184.239 98.4702C183.717 97.7236 182.97 97.0888 181.999 96.5662C181.066 96.0436 179.965 95.5768 178.695 95.1662C177.463 94.7182 176.157 94.2516 174.775 93.7662C171.677 92.7582 169.306 91.4142 167.663 89.7342C166.058 88.0542 165.255 85.8328 165.255 83.0702C165.255 80.7182 165.815 78.7022 166.935 77.0222C168.093 75.3422 169.679 74.0542 171.695 73.1582C173.711 72.2622 176.007 71.8142 178.583 71.8142C181.234 71.8142 183.549 72.2808 185.527 73.2142C187.543 74.1102 189.13 75.4168 190.287 77.1342C191.482 78.8516 192.098 80.8676 192.135 83.1822H184.071C184.034 82.3236 183.773 81.5208 183.287 80.7742C182.839 79.9902 182.205 79.3742 181.383 78.9262C180.562 78.4408 179.591 78.1982 178.471 78.1982C177.501 78.1608 176.605 78.3102 175.783 78.6462C174.999 78.9822 174.365 79.4862 173.879 80.1582C173.431 80.7928 173.207 81.5956 173.207 82.5662C173.207 83.4996 173.431 84.2836 173.879 84.9182C174.365 85.5528 175.018 86.1128 175.839 86.5982C176.661 87.0462 177.631 87.4756 178.751 87.8862C179.871 88.2596 181.085 88.6516 182.391 89.0622C184.333 89.7342 186.125 90.5368 187.767 91.4702C189.41 92.3662 190.717 93.5422 191.687 94.9982C192.658 96.4542 193.143 98.3768 193.143 100.766C193.143 102.82 192.602 104.724 191.519 106.478C190.437 108.233 188.869 109.652 186.815 110.734C184.799 111.817 182.279 112.358 179.255 112.358ZM208.908 112.358C206.556 112.358 204.615 111.985 203.084 111.238C201.554 110.454 200.415 109.428 199.668 108.158C198.959 106.852 198.604 105.414 198.604 103.846C198.604 102.129 199.034 100.617 199.892 99.3102C200.788 98.0036 202.114 96.9768 203.868 96.2302C205.66 95.4836 207.9 95.1102 210.588 95.1102H217.588C217.588 93.7288 217.402 92.5902 217.028 91.6942C216.655 90.7608 216.076 90.0702 215.292 89.6222C214.508 89.1742 213.463 88.9502 212.156 88.9502C210.738 88.9502 209.524 89.2676 208.516 89.9022C207.546 90.4996 206.948 91.4328 206.724 92.7022H199.388C199.575 90.6862 200.228 88.9502 201.348 87.4942C202.506 86.0008 204.018 84.8436 205.884 84.0222C207.788 83.2008 209.898 82.7902 212.212 82.7902C214.863 82.7902 217.159 83.2382 219.1 84.1342C221.042 85.0302 222.535 86.3182 223.58 87.9982C224.626 89.6782 225.148 91.7502 225.148 94.2142V111.686H218.764L217.924 107.374C217.514 108.121 217.028 108.793 216.468 109.39C215.908 109.988 215.255 110.51 214.508 110.958C213.762 111.406 212.922 111.742 211.988 111.966C211.055 112.228 210.028 112.358 208.908 112.358ZM210.7 106.534C211.671 106.534 212.53 106.366 213.276 106.03C214.06 105.657 214.732 105.172 215.292 104.574C215.852 103.94 216.282 103.23 216.58 102.446C216.916 101.625 217.14 100.748 217.252 99.8142V99.7582H211.484C210.327 99.7582 209.375 99.9076 208.628 100.206C207.919 100.468 207.396 100.86 207.06 101.382C206.724 101.905 206.556 102.502 206.556 103.174C206.556 103.921 206.724 104.537 207.06 105.022C207.396 105.508 207.882 105.881 208.516 106.142C209.151 106.404 209.879 106.534 210.7 106.534ZM244.353 124.678C241.665 124.678 239.313 124.342 237.297 123.67C235.281 123.036 233.713 122.046 232.593 120.702C231.51 119.396 230.969 117.772 230.969 115.83C230.969 114.524 231.305 113.292 231.977 112.134C232.649 110.977 233.619 109.932 234.889 108.998C236.195 108.028 237.819 107.206 239.761 106.534L242.617 110.23C240.899 110.79 239.649 111.481 238.865 112.302C238.118 113.161 237.745 114.076 237.745 115.046C237.745 115.905 238.025 116.633 238.585 117.23C239.182 117.828 239.966 118.257 240.937 118.518C241.945 118.817 243.065 118.966 244.297 118.966C245.491 118.966 246.519 118.817 247.377 118.518C248.273 118.22 248.963 117.772 249.449 117.174C249.971 116.614 250.233 115.942 250.233 115.158C250.233 114.15 249.879 113.329 249.169 112.694C248.459 112.06 247.041 111.668 244.913 111.518C243.009 111.369 241.31 111.164 239.817 110.902C238.361 110.604 237.073 110.268 235.953 109.894C234.833 109.484 233.881 109.036 233.097 108.55C232.35 108.065 231.734 107.58 231.249 107.094V105.806L237.241 99.3662L242.673 101.102L235.617 108.046L237.745 104.35C238.155 104.574 238.547 104.798 238.921 105.022C239.331 105.209 239.835 105.396 240.433 105.582C241.03 105.732 241.814 105.881 242.785 106.03C243.755 106.18 244.987 106.31 246.481 106.422C248.945 106.646 250.961 107.113 252.529 107.822C254.135 108.532 255.311 109.484 256.057 110.678C256.803 111.836 257.177 113.273 257.177 114.99C257.177 116.67 256.711 118.238 255.777 119.694C254.881 121.188 253.481 122.382 251.577 123.278C249.673 124.212 247.265 124.678 244.353 124.678ZM244.353 103.342C242.001 103.342 239.966 102.894 238.249 101.998C236.569 101.065 235.262 99.8328 234.329 98.3022C233.433 96.7342 232.985 94.9982 232.985 93.0942C232.985 91.1902 233.433 89.4728 234.329 87.9422C235.262 86.3742 236.569 85.1236 238.249 84.1902C239.966 83.2568 242.001 82.7902 244.353 82.7902C246.743 82.7902 248.777 83.2568 250.457 84.1902C252.175 85.1236 253.481 86.3742 254.377 87.9422C255.273 89.4728 255.721 91.1902 255.721 93.0942C255.721 94.9982 255.273 96.7342 254.377 98.3022C253.481 99.8328 252.175 101.065 250.457 101.998C248.777 102.894 246.743 103.342 244.353 103.342ZM244.353 97.5742C245.809 97.5742 246.985 97.2008 247.881 96.4542C248.777 95.7076 249.225 94.6062 249.225 93.1502C249.225 91.6942 248.777 90.5928 247.881 89.8462C246.985 89.0622 245.809 88.6702 244.353 88.6702C242.934 88.6702 241.758 89.0622 240.825 89.8462C239.929 90.5928 239.481 91.6942 239.481 93.1502C239.481 94.6062 239.929 95.7076 240.825 96.4542C241.758 97.2008 242.934 97.5742 244.353 97.5742ZM249.057 88.8382L247.825 83.4622H259.417V87.9422L249.057 88.8382ZM278.019 112.358C275.181 112.358 272.661 111.761 270.459 110.566C268.293 109.334 266.595 107.636 265.363 105.47C264.167 103.268 263.571 100.729 263.571 97.8542C263.571 94.9048 264.167 92.3102 265.363 90.0702C266.557 87.7928 268.237 86.0196 270.403 84.7502C272.605 83.4436 275.143 82.7902 278.019 82.7902C280.819 82.7902 283.263 83.4062 285.355 84.6382C287.445 85.8702 289.069 87.5316 290.227 89.6222C291.383 91.7128 291.963 94.0836 291.963 96.7342V98.0222C291.963 98.4702 291.925 98.9368 291.851 99.4222H268.947V94.8302H284.347C284.235 93.0008 283.581 91.5636 282.387 90.5182C281.229 89.4728 279.773 88.9502 278.019 88.9502C276.749 88.9502 275.573 89.2488 274.491 89.8462C273.407 90.4062 272.549 91.2836 271.915 92.4782C271.317 93.6728 271.019 95.1848 271.019 97.0142V98.6382C271.019 100.169 271.299 101.513 271.859 102.67C272.455 103.79 273.277 104.668 274.323 105.302C275.367 105.9 276.581 106.198 277.963 106.198C279.343 106.198 280.483 105.9 281.379 105.302C282.311 104.705 283.003 103.94 283.451 103.006H291.179C290.655 104.761 289.779 106.348 288.547 107.766C287.315 109.185 285.803 110.305 284.011 111.126C282.219 111.948 280.221 112.358 278.019 112.358ZM311.389 111.686V72.4862H325.165C327.929 72.4862 330.205 72.9342 331.997 73.8302C333.827 74.6888 335.189 75.8836 336.085 77.4142C336.981 78.9076 337.429 80.5876 337.429 82.4542C337.429 84.4702 336.981 86.1502 336.085 87.4942C335.227 88.8382 334.089 89.8648 332.669 90.5742C331.289 91.2836 329.813 91.7128 328.245 91.8622L329.029 91.3022C330.709 91.3396 332.259 91.7876 333.677 92.6462C335.097 93.5048 336.217 94.6622 337.037 96.1182C337.897 97.5742 338.325 99.1982 338.325 100.99C338.325 102.969 337.841 104.78 336.869 106.422C335.899 108.028 334.461 109.316 332.557 110.286C330.691 111.22 328.377 111.686 325.613 111.686H311.389ZM316.093 107.766H325.109C327.761 107.766 329.813 107.15 331.269 105.918C332.763 104.649 333.509 102.894 333.509 100.654C333.509 98.4516 332.745 96.6968 331.213 95.3902C329.721 94.0462 327.649 93.3742 324.997 93.3742H316.093V107.766ZM316.093 89.6222H324.829C327.369 89.6222 329.291 89.0248 330.597 87.8302C331.941 86.6356 332.613 85.0116 332.613 82.9582C332.613 80.9796 331.941 79.3928 330.597 78.1982C329.291 77.0036 327.313 76.4062 324.661 76.4062H316.093V89.6222ZM344.811 111.686V83.9102H349.515V111.686H344.811ZM347.163 77.9182C346.231 77.9182 345.447 77.6196 344.811 77.0222C344.215 76.3876 343.915 75.5848 343.915 74.6142C343.915 73.7182 344.215 72.9716 344.811 72.3742C345.447 71.7768 346.231 71.4782 347.163 71.4782C348.059 71.4782 348.825 71.7768 349.459 72.3742C350.095 72.9716 350.411 73.7368 350.411 74.6702C350.411 75.5662 350.095 76.3316 349.459 76.9662C348.825 77.6008 348.059 77.9182 347.163 77.9182ZM369.705 112.358C367.091 112.358 364.739 111.761 362.649 110.566C360.557 109.372 358.897 107.692 357.665 105.526C356.469 103.324 355.873 100.748 355.873 97.7982C355.873 94.8488 356.489 92.2916 357.721 90.1262C358.953 87.9236 360.613 86.2248 362.705 85.0302C364.833 83.8356 367.203 83.2382 369.817 83.2382C372.429 83.2382 374.781 83.8356 376.873 85.0302C378.963 86.2248 380.605 87.9236 381.801 90.1262C383.033 92.2916 383.649 94.8488 383.649 97.7982C383.649 100.748 383.033 103.324 381.801 105.526C380.569 107.692 378.889 109.372 376.761 110.566C374.669 111.761 372.317 112.358 369.705 112.358ZM369.705 108.438C371.309 108.438 372.803 108.046 374.185 107.262C375.565 106.441 376.685 105.246 377.545 103.678C378.403 102.11 378.833 100.15 378.833 97.7982C378.833 95.4088 378.403 93.4302 377.545 91.8622C376.723 90.2942 375.621 89.1182 374.241 88.3342C372.859 87.5502 371.385 87.1582 369.817 87.1582C368.249 87.1582 366.755 87.5502 365.337 88.3342C363.955 89.1182 362.835 90.2942 361.977 91.8622C361.117 93.4302 360.689 95.4088 360.689 97.7982C360.689 100.15 361.117 102.11 361.977 103.678C362.835 105.246 363.937 106.441 365.281 107.262C366.661 108.046 368.137 108.438 369.705 108.438ZM389.531 111.686V83.9102H393.731L394.067 88.7262H394.123C395.057 87.0462 396.345 85.7208 397.987 84.7502C399.631 83.7422 401.535 83.2382 403.699 83.2382C405.865 83.2382 407.751 83.6862 409.355 84.5822C410.961 85.4408 412.211 86.7848 413.107 88.6142C414.003 90.4062 414.451 92.6836 414.451 95.4462V111.686H409.747V95.9502C409.747 93.0756 409.131 90.9102 407.899 89.4542C406.667 87.9982 404.895 87.2702 402.579 87.2702C400.975 87.2702 399.537 87.6622 398.267 88.4462C397.035 89.2302 396.047 90.3688 395.299 91.8622C394.591 93.3182 394.235 95.1288 394.235 97.2942V111.686H389.531ZM433.357 112.358C430.705 112.358 428.353 111.761 426.301 110.566C424.247 109.334 422.623 107.636 421.429 105.47C420.271 103.268 419.693 100.71 419.693 97.7982C419.693 94.8488 420.271 92.2916 421.429 90.1262C422.585 87.9608 424.191 86.2808 426.245 85.0862C428.335 83.8542 430.743 83.2382 433.469 83.2382C436.193 83.2382 438.527 83.8542 440.469 85.0862C442.409 86.2808 443.903 87.8676 444.949 89.8462C445.993 91.7876 446.517 93.9156 446.517 96.2302V97.4622C446.517 97.8728 446.497 98.3396 446.461 98.8622H423.221V95.2222H441.869C441.757 92.6836 440.897 90.7048 439.293 89.2862C437.725 87.8676 435.745 87.1582 433.357 87.1582C431.751 87.1582 430.257 87.5128 428.877 88.2222C427.495 88.9316 426.375 89.9768 425.517 91.3582C424.695 92.7022 424.285 94.4196 424.285 96.5102V98.0782C424.285 100.356 424.713 102.26 425.573 103.79C426.431 105.321 427.551 106.478 428.933 107.262C430.351 108.009 431.825 108.382 433.357 108.382C435.297 108.382 436.921 107.934 438.229 107.038C439.535 106.142 440.487 104.929 441.085 103.398H445.733C445.247 105.116 444.445 106.646 443.325 107.99C442.205 109.334 440.805 110.398 439.125 111.182C437.481 111.966 435.559 112.358 433.357 112.358ZM462.085 111.686C460.405 111.686 458.949 111.425 457.717 110.902C456.485 110.38 455.533 109.502 454.861 108.27C454.227 107.001 453.909 105.302 453.909 103.174V87.7182H449.093V83.9102H453.909L454.525 77.2462H458.613V83.9102H466.789V87.7182H458.613V103.174C458.613 104.966 458.969 106.18 459.677 106.814C460.387 107.449 461.637 107.766 463.429 107.766H466.341V111.686H462.085ZM477.545 111.686L469.537 83.9102H474.241L480.569 107.654L479.729 107.598L486.561 83.9102H492.049L498.937 107.598L498.097 107.654L504.313 83.9102H509.073L501.065 111.686H496.025L488.857 87.1022H489.753L482.585 111.686H477.545ZM525.345 112.358C522.731 112.358 520.379 111.761 518.289 110.566C516.199 109.372 514.537 107.692 513.305 105.526C512.111 103.324 511.513 100.748 511.513 97.7982C511.513 94.8488 512.129 92.2916 513.361 90.1262C514.593 87.9236 516.255 86.2248 518.345 85.0302C520.473 83.8356 522.843 83.2382 525.457 83.2382C528.071 83.2382 530.423 83.8356 532.513 85.0302C534.603 86.2248 536.247 87.9236 537.441 90.1262C538.673 92.2916 539.289 94.8488 539.289 97.7982C539.289 100.748 538.673 103.324 537.441 105.526C536.209 107.692 534.529 109.372 532.401 110.566C530.311 111.761 527.959 112.358 525.345 112.358ZM525.345 108.438C526.951 108.438 528.443 108.046 529.825 107.262C531.207 106.441 532.327 105.246 533.185 103.678C534.043 102.11 534.473 100.15 534.473 97.7982C534.473 95.4088 534.043 93.4302 533.185 91.8622C532.363 90.2942 531.263 89.1182 529.881 88.3342C528.499 87.5502 527.025 87.1582 525.457 87.1582C523.889 87.1582 522.395 87.5502 520.977 88.3342C519.595 89.1182 518.475 90.2942 517.617 91.8622C516.759 93.4302 516.329 95.4088 516.329 97.7982C516.329 100.15 516.759 102.11 517.617 103.678C518.475 105.246 519.577 106.441 520.921 107.262C522.303 108.046 523.777 108.438 525.345 108.438ZM545.173 111.686V83.9102H549.373L549.821 89.4542H549.877C550.549 87.9982 551.351 86.8222 552.285 85.9262C553.255 84.9928 554.393 84.3208 555.699 83.9102C557.007 83.4622 558.519 83.2382 560.237 83.2382V88.1662H558.949C557.641 88.1662 556.429 88.3342 555.309 88.6702C554.225 89.0062 553.273 89.5288 552.453 90.2382C551.631 90.9476 550.997 91.9182 550.549 93.1502C550.101 94.3448 549.877 95.8196 549.877 97.5742V111.686H545.173ZM582.277 111.686L568.781 96.3982L580.933 83.9102H586.701L572.757 98.0782L572.813 94.7182L588.269 111.686H582.277ZM564.861 111.686V71.6462H569.565V111.686H564.861ZM601.367 112.358C599.165 112.358 597.185 111.985 595.431 111.238C593.677 110.454 592.257 109.372 591.175 107.99C590.129 106.572 589.477 104.91 589.215 103.006H594.031C594.255 103.977 594.665 104.873 595.263 105.694C595.861 106.516 596.663 107.188 597.671 107.71C598.717 108.196 599.967 108.438 601.423 108.438C602.767 108.438 603.869 108.252 604.727 107.878C605.585 107.468 606.221 106.945 606.631 106.31C607.041 105.638 607.247 104.929 607.247 104.182C607.247 103.1 606.967 102.278 606.407 101.718C605.885 101.121 605.081 100.654 603.999 100.318C602.953 99.9448 601.703 99.5902 600.247 99.2542C599.127 98.9928 597.989 98.6756 596.831 98.3022C595.673 97.9288 594.609 97.4622 593.639 96.9022C592.705 96.3048 591.941 95.5768 591.343 94.7182C590.783 93.8222 590.503 92.7396 590.503 91.4702C590.503 89.8648 590.913 88.4462 591.735 87.2142C592.557 85.9822 593.713 85.0116 595.207 84.3022C596.737 83.5928 598.529 83.2382 600.583 83.2382C603.533 83.2382 605.941 83.9662 607.807 85.4222C609.711 86.8782 610.813 88.9876 611.111 91.7502H606.463C606.313 90.2942 605.717 89.1742 604.671 88.3902C603.663 87.5688 602.281 87.1582 600.527 87.1582C598.809 87.1582 597.503 87.5128 596.607 88.2222C595.711 88.9316 595.263 89.8648 595.263 91.0222C595.263 91.7316 595.505 92.3476 595.991 92.8702C596.513 93.3928 597.261 93.8408 598.231 94.2142C599.239 94.5876 600.433 94.9422 601.815 95.2782C603.569 95.6888 605.213 96.1742 606.743 96.7342C608.273 97.2942 609.525 98.1156 610.495 99.1982C611.503 100.244 612.007 101.737 612.007 103.678C612.045 105.396 611.615 106.908 610.719 108.214C609.861 109.521 608.629 110.548 607.023 111.294C605.455 112.004 603.569 112.358 601.367 112.358Z" fill="white"/>
</svg>
