<svg width="240" height="265" viewBox="0 0 240 265" fill="none" xmlns="http://www.w3.org/2000/svg">
<g clip-path="url(#clip0_28_9)">
<path fill-rule="evenodd" clip-rule="evenodd" d="M119.719 0L218.841 57.6718L211.313 70.6461L119.706 17.3491L44.4033 61.0361L44.3866 61.0458L27.8765 70.681L20.3159 57.7257L36.851 48.076L119.719 0Z" fill="white"/>
<path fill-rule="evenodd" clip-rule="evenodd" d="M112.216 122.336V8.38232H127.216V122.336H112.216Z" fill="white"/>
<path fill-rule="evenodd" clip-rule="evenodd" d="M0.384809 112.205L0 93.0888L14.997 92.7869L15.3854 112.081L15.0731 198.885L90.5589 242.256L90.5754 242.266L107.175 251.747L99.7351 264.772L83.1108 255.276L0.041851 207.548L0.384809 112.205Z" fill="white"/>
<path fill-rule="evenodd" clip-rule="evenodd" d="M109.739 152.879L11.0525 209.856L3.55249 196.865L102.239 139.888L109.739 152.879Z" fill="white"/>
<path fill-rule="evenodd" clip-rule="evenodd" d="M238.95 92.6307L239.039 111.775L239.24 207.58L156.498 254.955L140.136 264.846L132.376 252.009L148.89 242.026L224.222 198.894L224.039 111.836L224.039 111.816L223.95 92.7004L238.95 92.6307Z" fill="white"/>
<path fill-rule="evenodd" clip-rule="evenodd" d="M137.046 139.914L235.733 196.89L228.233 209.881L129.546 152.905L137.046 139.914Z" fill="white"/>
</g>
<defs>
<clipPath id="clip0_28_9">
<rect width="239.24" height="264.846" fill="white"/>
</clipPath>
</defs>
</svg>
